<svg width="52" height="36" viewBox="0 0 52 36" fill="none" xmlns="http://www.w3.org/2000/svg">
<rect x="1.25" y="0.75" width="49.5" height="34.5" rx="5.25" fill="white" stroke="white" stroke-width="1.5"/>
<path fill-rule="evenodd" clip-rule="evenodd" d="M26.2686 25.244C24.4925 26.7411 22.1886 27.6449 19.671 27.6449C14.0537 27.6449 9.5 23.1454 9.5 17.5949C9.5 12.0445 14.0537 7.54492 19.671 7.54492C22.1887 7.54492 24.4927 8.44877 26.2688 9.94599C28.0449 8.44884 30.3488 7.54504 32.8663 7.54504C38.4837 7.54504 43.0374 12.0446 43.0374 17.595C43.0374 23.1455 38.4837 27.645 32.8663 27.645C30.3487 27.645 28.0447 26.7412 26.2686 25.244Z" fill="#ED0006"/>
<path fill-rule="evenodd" clip-rule="evenodd" d="M26.2686 25.2448C28.4558 23.4014 29.8427 20.6583 29.8427 17.5952C29.8427 14.532 28.4558 11.7889 26.2686 9.94555C28.0446 8.44874 30.3482 7.54517 32.8655 7.54517C38.4828 7.54517 43.0365 12.0447 43.0365 17.5952C43.0365 23.1456 38.4828 27.6452 32.8655 27.6452C30.3482 27.6452 28.0446 26.7416 26.2686 25.2448Z" fill="#F9A000"/>
<path fill-rule="evenodd" clip-rule="evenodd" d="M26.2687 25.2443C28.4555 23.4009 29.8421 20.6581 29.8421 17.5953C29.8421 14.5325 28.4555 11.7896 26.2687 9.94629C24.0819 11.7896 22.6953 14.5325 22.6953 17.5953C22.6953 20.6581 24.0819 23.4009 26.2687 25.2443Z" fill="#FF5E00"/>
</svg>
