<svg width="32" height="32" viewBox="0 0 32 32" fill="none" xmlns="http://www.w3.org/2000/svg">
<path d="M30.3586 23.3589V27.8102C30.3603 28.2234 30.2761 28.6324 30.1114 29.0111C29.9467 29.3897 29.7051 29.7296 29.4022 30.0089C29.0992 30.2883 28.7416 30.501 28.3521 30.6334C27.9627 30.7657 27.55 30.8149 27.1406 30.7777C22.5981 30.2816 18.2347 28.7214 14.401 26.2225C10.8343 23.9445 7.81034 20.905 5.54389 17.3199C3.04909 13.449 1.49653 9.04193 1.01198 4.45559C0.975093 4.04528 1.02361 3.63174 1.15443 3.24131C1.28526 2.85088 1.49554 2.4921 1.77187 2.18783C2.04821 1.88355 2.38455 1.64045 2.75948 1.47398C3.13441 1.30752 3.53972 1.22136 3.9496 1.22097H8.37817C9.09458 1.21388 9.7891 1.46888 10.3323 1.93842C10.8755 2.40797 11.2303 3.06003 11.3306 3.77306C11.5175 5.19758 11.8641 6.59627 12.3639 7.94246C12.5625 8.47354 12.6055 9.05071 12.4877 9.60559C12.37 10.1605 12.0965 10.6698 11.6996 11.0732L9.82484 12.9576C11.9263 16.6723 14.9863 19.748 18.682 21.8602L20.5567 19.9759C20.9581 19.5769 21.4648 19.302 22.0169 19.1837C22.5689 19.0653 23.1431 19.1085 23.6715 19.3082C25.0108 19.8105 26.4024 20.1589 27.8196 20.3468C28.5367 20.4485 29.1916 20.8115 29.6597 21.3669C30.1279 21.9222 30.3766 22.6312 30.3586 23.3589Z" stroke="#C82132" stroke-width="2" stroke-linecap="round" stroke-linejoin="round"/>
</svg>
