<svg width="28" height="16" viewBox="0 0 28 16" fill="none" xmlns="http://www.w3.org/2000/svg">
<path d="M13.6096 15.9135H15.2716C15.2716 15.9135 15.7741 15.8576 16.0296 15.5798C16.2661 15.3246 16.2574 14.8458 16.2574 14.8458C16.2574 14.8458 16.2244 12.6038 17.2605 12.2736C18.281 11.9486 19.5919 14.4404 20.981 15.3998C22.0311 16.125 22.829 15.9659 22.829 15.9659L26.5443 15.9135C26.5443 15.9135 28.488 15.7929 27.5665 14.2569C27.4918 14.1311 27.0293 13.1211 24.804 11.0451C22.4744 8.87129 22.7873 9.22428 25.5933 5.46552C27.3023 3.17636 27.9855 1.7784 27.7717 1.18077C27.5683 0.611102 26.3113 0.761382 26.3113 0.761382L22.1319 0.785846C22.1319 0.785846 21.8224 0.743908 21.5912 0.881956C21.3669 1.01826 21.2226 1.3328 21.2226 1.3328C21.2226 1.3328 20.5603 3.10471 19.6771 4.61101C17.8151 7.78962 17.0693 7.95738 16.765 7.75992C16.0575 7.30034 16.2348 5.91112 16.2348 4.92555C16.2348 1.8448 16.699 0.560425 15.329 0.22841C14.8735 0.118321 14.5397 0.0449278 13.3766 0.0326957C11.885 0.0169686 10.6211 0.037938 9.90654 0.389175C9.43018 0.623334 9.06335 1.14582 9.28762 1.17553C9.56405 1.21222 10.1899 1.34503 10.522 1.79937C10.9514 2.38476 10.9358 3.70234 10.9358 3.70234C10.9358 3.70234 11.1826 7.3283 10.3603 7.77914C9.79527 8.08844 9.02163 7.45761 7.36133 4.57257C6.51119 3.09597 5.86793 1.46211 5.86793 1.46211C5.86793 1.46211 5.7445 1.15805 5.5237 0.99554C5.25597 0.798079 4.88045 0.735171 4.88045 0.735171L0.906163 0.759635C0.906163 0.759635 0.309847 0.77711 0.0907918 1.03748C-0.103924 1.26989 0.075145 1.74869 0.075145 1.74869C0.075145 1.74869 3.18712 9.06526 6.70938 12.7541C9.94131 16.1354 13.6096 15.9135 13.6096 15.9135Z" fill="#1E88E5"/>
</svg>
